<svg width="511" height="803" viewBox="0 0 511 803" fill="none" xmlns="http://www.w3.org/2000/svg">
<path fill-rule="evenodd" clip-rule="evenodd" d="M304.721 19.8096C356.98 29.1201 403.187 50.3981 449.245 76.7875C501.477 106.714 572.799 125.335 589.722 183.105C606.655 240.907 552.002 292.928 528.849 348.531C508.105 398.351 504.448 458.811 461.38 491.331C418.057 524.043 359.007 517.481 304.721 517.764C250.123 518.049 195.988 516.811 146.869 492.971C89.9418 465.341 26.6346 432.587 5.98831 372.772C-14.7359 312.73 23.4809 251.11 42.4657 190.496C61.6999 129.085 63.2844 52.7372 117.22 17.6341C170.92 -17.3165 241.642 8.57137 304.721 19.8096Z" fill="url(#paint0_linear)"/>
<path fill-rule="evenodd" clip-rule="evenodd" d="M515.619 662.71C493.446 697.632 472.446 733.807 436.558 754.388C390.957 780.538 332.059 821.723 287.708 793.407C241.203 763.714 278.536 684.141 251.347 636.135C225.136 589.858 144.865 582.04 138.126 529.304C131.589 478.156 181.646 436.218 221.648 403.729C257.141 374.902 302.982 368.133 347.805 359.005C391.67 350.073 436.698 335.617 478.615 351.402C521.523 367.56 560.056 401.335 575.158 444.619C589.329 485.236 565.76 527.257 554.438 568.73C545.287 602.25 534.241 633.381 515.619 662.71Z" fill="url(#paint1_linear)" fill-opacity="0.6"/>
<defs>
<linearGradient id="paint0_linear" x1="592.923" y1="259.062" x2="-8.71946" y2="259.062" gradientUnits="userSpaceOnUse">
<stop stop-color="#00C6FF"/>
<stop offset="1" stop-color="#0072FF"/>
</linearGradient>
<linearGradient id="paint1_linear" x1="204.072" y1="720.517" x2="519.329" y2="362.666" gradientUnits="userSpaceOnUse">
<stop stop-color="#0072FF"/>
<stop offset="1" stop-color="#00C6FF"/>
</linearGradient>
</defs>
</svg>
