<svg width="629" height="772" viewBox="0 0 629 772" fill="none" xmlns="http://www.w3.org/2000/svg">
<path fill-rule="evenodd" clip-rule="evenodd" d="M234.643 32.0436C317.33 24.5413 411.308 -28.9925 477.389 21.3143C543.65 71.7577 507.449 179.385 532.545 258.831C557.322 337.271 654.001 405.814 622.898 481.963C591.232 559.49 473.262 543.029 399.959 583.435C340.118 616.42 302.942 694.444 234.643 695.975C166.171 697.51 121.863 627.415 63.8569 590.97C-0.0815125 550.797 -90.163 540.161 -122.222 471.755C-154.887 402.057 -122.514 320.483 -96.9372 247.879C-71.9475 176.94 -41.1046 103.652 21.8977 62.6416C83.4629 22.5671 161.502 38.6798 234.643 32.0436Z" fill="#C4C4C4"/>
<path fill-rule="evenodd" clip-rule="evenodd" d="M234.643 32.0436C317.33 24.5413 411.308 -28.9925 477.389 21.3143C543.65 71.7577 507.449 179.385 532.545 258.831C557.322 337.271 654.001 405.814 622.898 481.963C591.232 559.49 473.262 543.029 399.959 583.435C340.118 616.42 302.942 694.444 234.643 695.975C166.171 697.51 121.863 627.415 63.8569 590.97C-0.0815125 550.797 -90.163 540.161 -122.222 471.755C-154.887 402.057 -122.514 320.483 -96.9372 247.879C-71.9475 176.94 -41.1046 103.652 21.8977 62.6416C83.4629 22.5671 161.502 38.6798 234.643 32.0436Z" fill="url(#paint0_linear)"/>
<path fill-rule="evenodd" clip-rule="evenodd" d="M100.029 416.112C138.524 418.135 163.997 454.127 195.163 476.852C226.293 499.55 263.142 515.163 281.994 548.793C303.489 587.138 321.604 633.936 306.331 675.166C291.164 716.11 245.455 735.584 205.954 754.064C172.711 769.617 136.688 773.189 100.029 771.685C64.8158 770.241 30.2486 764.111 0.224289 745.625C-31.7029 725.967 -62.6843 700.449 -73.8661 664.618C-84.9957 628.955 -71.4927 591.461 -58.8579 556.305C-46.6062 522.214 -29.7895 490.402 -2.64757 466.454C26.664 440.591 61.0212 414.061 100.029 416.112Z" fill="url(#paint1_linear)" fill-opacity="0.5"/>
<defs>
<linearGradient id="paint0_linear" x1="629" y1="348" x2="-147.25" y2="348" gradientUnits="userSpaceOnUse">
<stop stop-color="#00C6FF"/>
<stop offset="1" stop-color="#0072FF"/>
</linearGradient>
<linearGradient id="paint1_linear" x1="312" y1="594" x2="-83.7353" y2="594" gradientUnits="userSpaceOnUse">
<stop stop-color="#00C6FF"/>
<stop offset="1" stop-color="#0072FF"/>
</linearGradient>
</defs>
</svg>
