<svg width="112" height="28" viewBox="0 0 112 28" fill="none" xmlns="http://www.w3.org/2000/svg">
<path d="M32.1614 13.6941V13.6935V13.6941ZM107.172 20.4949L107.21 20.4954C109.469 20.4954 111.058 18.9306 111.076 16.6912C111.084 15.5823 110.764 14.5671 110.174 13.8338C109.55 13.0575 108.676 12.6437 107.647 12.6355H107.626C106.238 12.6355 104.948 13.6892 103.684 15.8572L103.583 16.0303L103.519 15.8417C103.199 14.9126 102.915 14.1385 102.745 13.6752C102.626 13.3521 102.574 13.207 102.561 13.16C102.5 12.9255 102.3 12.7798 102.037 12.7798C101.875 12.7798 101.704 12.8347 101.541 12.938C101.38 13.0405 101.29 13.1657 101.258 13.333L101.25 13.3582C99.9848 17.3043 98.9417 19.22 98.0578 19.22C97.9293 19.2189 97.8287 19.1771 97.7538 19.0935C97.5223 18.8377 97.5792 18.2292 97.6579 17.3868C97.7156 16.768 97.7814 16.0674 97.7541 15.324C97.7022 13.8947 96.9199 13.0364 95.6628 13.0271C94.0649 13.0266 93.0295 14.7284 92.5526 15.7427L92.4102 16.045L92.3787 15.7115C92.2596 14.4564 91.8383 12.9572 90.5083 12.9473C88.9569 12.9473 87.775 14.7677 87.0539 16.2957L86.8607 16.7051L86.8798 16.253C86.9653 14.2153 87.0356 13.0121 87.0889 12.6784C87.1414 12.3435 87.1138 12.1189 87.0042 11.9901C86.9003 11.8696 86.7046 11.825 86.4176 11.8431C85.9209 11.8745 85.667 12.1768 85.2846 13.1901C84.6565 14.8541 83.0589 18.7256 81.7832 18.7256C81.5301 18.7237 81.3298 18.6376 81.183 18.4689C80.6481 17.8558 80.8621 16.1978 81.1581 13.9037L81.1805 13.7302C81.3207 12.6439 81.0818 12.4121 80.4917 12.3036C80.4326 12.2925 80.3726 12.2867 80.3124 12.2861C79.8412 12.2861 79.6209 12.7374 79.1808 13.9915C78.3977 16.223 77.3905 18.5698 76.2129 18.5698C76.1698 18.5698 76.1274 18.5665 76.0839 18.5597C75.4599 18.4533 75.4736 17.5278 75.4908 16.355C75.4995 15.7208 75.5102 15.0017 75.4126 14.3525C75.2366 13.1876 74.5505 12.4603 73.6209 12.4529C71.7666 12.4529 70.5161 14.8276 69.9345 16.2435L69.8027 16.5638L69.7587 16.2199C69.6445 15.3111 69.5694 14.3978 69.5338 13.4825L69.5321 13.4484L69.5532 13.4216C73.0237 9.05289 74.5811 5.90027 74.6019 3.1992C74.6153 1.47365 73.8191 0.437174 72.4724 0.426514C71.4876 0.426514 69.1462 1.24679 68.3325 8.84434C68.1804 10.2706 68.0983 11.7035 68.0865 13.1378L68.0859 13.1663L68.0698 13.1892C66.482 15.4874 63.0932 19.4406 59.7755 19.4406C56.7778 19.4406 54.3862 17.0153 54.3862 12.7344C54.3862 6.99552 58.4482 3.47199 61.5051 3.47199H61.5306C62.1948 3.47691 62.7644 3.6625 63.1777 4.00854C63.6068 4.3677 63.8317 4.87117 63.8271 5.46431C63.8211 6.2567 63.5628 6.66396 63.3132 7.05729C63.2496 7.1587 63.1853 7.25928 63.1268 7.36588C63.0678 7.47357 63.0139 7.62965 63.0924 7.76331C63.1727 7.90025 63.378 7.98635 63.6281 7.98826C64.3557 7.98826 65.4562 6.93484 65.4682 5.34787C65.4808 3.68683 64.0816 1.97522 61.5852 1.97522C57.8075 1.97522 52.7194 6.1255 52.7194 12.8517C52.7194 17.6096 55.7025 20.898 59.7435 20.898C62.611 20.898 65.4477 18.8448 67.9599 15.4153L68.1138 15.2075L68.1247 15.4655C68.178 16.721 68.2691 17.7099 68.3355 18.4323C68.3784 18.8967 68.4095 19.2321 68.4084 19.4171C68.4052 19.8225 68.471 20.1045 68.6113 20.2773C68.7509 20.4503 68.9729 20.532 69.3096 20.5342C69.8738 20.5342 69.987 20.1496 70.2103 19.2006L70.2745 18.9298C70.5522 17.7799 71.5778 14.0264 73.1202 14.0264C73.3722 14.0289 73.5665 14.1033 73.7046 14.2495C74.0451 14.6108 74.008 15.3524 73.9648 16.2115C73.9374 16.7475 73.9101 17.301 73.9637 17.8403C74.1088 19.296 74.7375 20.0081 75.8852 20.0163C77.0638 20.0168 78.2938 18.7472 78.943 17.5675L79.0655 17.3453L79.1133 17.5951C79.233 18.2265 79.7687 20.2989 81.4462 20.2989C82.9665 20.2989 84.2708 18.698 85.7004 15.403L85.8876 14.9727L85.8761 15.442C85.8458 16.6906 85.7783 18.2153 85.7777 19.3942C85.7772 20.306 85.8693 20.6539 86.2908 20.6539L86.3864 20.6583C86.7907 20.6583 87.0651 20.417 87.202 19.9397C88.2779 16.1904 89.2075 14.4444 90.1286 14.4444C91.0306 14.4512 91.1151 16.1005 91.1875 19.0148L91.1924 19.2192C91.2143 20.2385 91.2512 20.6895 91.8843 20.6941C92.3648 20.6941 92.4842 20.3167 92.7327 19.3873C92.7802 19.2102 92.8316 19.0159 92.8926 18.8059C93.7612 15.7925 94.4812 14.563 95.3777 14.563C96.1453 14.5687 96.1879 15.36 96.2021 15.62C96.2316 16.1768 96.1742 16.7598 96.119 17.3226C96.0674 17.8457 96.0143 18.3869 96.0343 18.8896C96.0813 20.0682 96.7264 20.7223 97.8514 20.7308C99.3116 20.7308 100.63 19.023 101.784 15.6561L101.864 15.4215L101.956 15.6525C102.165 16.1817 102.438 16.8981 102.69 17.7528L102.7 17.7853L102.686 17.8162C101.568 20.2981 100.779 23.0626 100.768 24.5396C100.753 26.485 101.633 27.7491 103.011 27.7598H103.034C103.784 27.7598 105.53 27.4588 105.564 24.6752C105.578 23.5343 105.308 21.9211 104.763 19.8796L104.701 19.6459L104.902 19.7798C105.599 20.2415 106.384 20.4883 107.172 20.4949ZM69.5379 11.0542C69.569 10.3567 69.6278 9.67745 69.7112 9.03512C70.2518 4.89632 71.3796 2.0061 72.4551 2.0061H72.4601C72.9728 2.00993 73.2292 2.39779 73.224 3.1582C73.2093 5.02697 72.0252 7.70235 69.7051 11.11L69.5237 11.3768L69.5379 11.0542ZM103.834 25.9336C103.663 26.1616 103.424 26.2772 103.126 26.2772C102.783 26.2742 102.526 26.155 102.35 25.9208C101.86 25.2651 101.998 23.7235 102.799 20.9254C102.895 20.5908 102.998 20.2549 103.108 19.9261L103.201 19.647L103.283 19.9293C104.216 23.1593 104.401 25.1792 103.834 25.9336ZM104.124 17.6585L104.107 17.6276L104.073 17.5202L104.089 17.4882C105.153 15.2961 106.372 14.0396 107.433 14.0396H107.444C108.641 14.0486 109.469 15.1266 109.458 16.6597C109.45 17.6831 108.999 18.2724 108.622 18.5865C108.192 18.9451 107.62 19.1501 107.051 19.1501C105.649 19.1394 104.687 18.3328 104.124 17.6585ZM107.433 14.1317V14.1303V14.1317ZM36.2732 20.1324C37.9153 20.0012 39.2181 17.7678 39.7019 16.8133L39.8265 16.5674L39.8738 16.839C40.1061 18.1811 40.8362 20.4361 43.1199 20.4541H43.139C44.1269 20.4541 45.2475 19.8498 46.3802 18.707L46.4633 18.6231L46.5237 18.7239C47.2863 19.9993 48.3091 20.6769 49.3981 20.6211C51.0012 20.5378 51.9743 19.4018 52.0598 18.6127C52.0817 18.4115 52.0287 18.2221 51.9136 18.0945C51.7695 17.9337 51.5602 17.9152 51.4065 18.0625L51.333 18.1319C50.9599 18.4902 50.2646 19.158 49.5069 19.1974C48.5792 19.2427 47.8931 18.6881 47.4498 17.5434L47.4315 17.4953L47.4626 17.4549C50.0136 14.1183 51.8037 9.0272 51.6269 5.61245C51.5454 4.03204 51.0859 2.14796 49.3598 2.14796L49.2311 2.15124C48.5699 2.18541 47.9686 2.50056 47.444 3.08741C45.8426 4.8791 45.0045 9.28905 45.3087 14.3225C45.3716 15.3682 45.5534 16.3457 45.8483 17.2266L45.865 17.2761L45.8314 17.316C44.8848 18.4222 43.9508 19.0314 43.2013 19.0314C41.3982 19.0314 41.4588 16.0078 41.6012 13.5008C41.6321 12.9602 41.6778 12.6158 41.5179 12.4201C41.4036 12.2799 41.2123 12.2107 40.9335 12.2085L40.901 12.2082C40.2592 12.2082 40.125 12.3403 39.7967 13.2926C39.1136 15.2709 37.7653 18.5911 36.409 18.5911C36.0332 18.5876 35.7462 18.4594 35.5496 18.209C34.8917 17.3693 35.3914 15.275 35.7926 13.5916C35.8648 13.289 35.9339 12.9984 35.9933 12.7295C36.081 12.3304 36.0542 12.0393 35.9132 11.863C35.7716 11.6873 35.4892 11.6162 35.1167 11.6457C34.5358 11.6922 34.1644 11.9355 33.9848 13.04L33.9487 13.2696L33.8137 13.1061C33.56 12.7317 33.0656 12.2856 32.1475 12.2856C32.0671 12.2856 31.9837 12.2889 31.8976 12.2957C30.918 12.3761 29.8025 13.0586 28.9861 14.0773C28.033 15.2666 27.5776 16.7718 27.7044 18.3164C27.711 18.3981 27.7227 18.4766 27.7345 18.5545L27.741 18.5974L27.7115 18.6299C27.1413 19.2509 26.5602 19.5664 25.9846 19.5664C25.096 19.5598 24.5862 18.8994 24.5862 17.7993C24.5862 15.9477 25.8411 10.3654 25.8411 8.34469C25.8411 6.1941 24.8828 5.02342 23.2187 5.01057H23.1936C20.7637 5.01057 18.87 7.76768 17.0578 13.4404C16.8857 13.985 16.7185 14.5311 16.5565 15.0788L16.302 15.9319L16.3772 15.0452C16.5411 13.1436 16.6557 11.2381 16.7208 9.3306C16.811 6.58907 16.4406 4.82471 15.5875 3.93692C15.1275 3.45805 14.5191 3.22216 13.7264 3.21615H13.7062C10.7329 3.21615 9.30851 8.23071 8.27121 11.769C7.95824 12.8372 7.34133 15.2466 6.92941 16.8937L7.1735 16.4971C7.35636 14.4231 7.88636 9.22782 7.85164 6.40922C7.81392 3.38561 6.80751 2.03016 4.58667 2.01321H4.55934C3.37307 2.01321 2.55006 2.60279 2.06872 3.09725C1.29573 3.891 0.81412 5.05103 0.840906 6.05279C0.857306 6.66178 1.23095 7.20379 1.51413 7.20379C1.69863 7.20379 1.80085 6.95752 1.84513 6.81074C2.5323 4.53962 3.42145 3.43536 4.56234 3.43536C5.03549 3.43891 5.38781 3.57831 5.65131 3.86176C6.54292 4.81815 6.38056 7.40059 6.08673 12.0891C5.99161 13.6001 5.88446 15.3119 5.79399 17.2594C5.7782 17.5808 5.75943 17.9019 5.73768 18.2229C5.65103 19.5751 5.58215 20.6438 6.0952 20.7234C6.76268 20.8275 7.19701 20.5564 7.4195 19.896C7.74914 18.9158 8.48851 16.2369 9.91914 11.3418C11.2918 6.64428 12.3288 4.93513 13.6556 4.93513C15.1885 4.93513 15.3027 7.56705 15.0217 13.1212C14.9619 14.2987 14.8818 15.6323 14.8203 17.0834C14.8118 17.2873 14.8022 17.4852 14.7924 17.6754C14.7334 18.8773 14.6869 19.8249 15.0302 20.1885C15.1374 20.3016 15.2828 20.3577 15.4755 20.3587C16.1399 20.3587 16.3397 19.7763 16.6708 18.8106C16.7292 18.6403 16.7913 18.4583 16.8604 18.268C19.1373 11.9871 20.8208 6.53768 23.0804 6.53768C23.758 6.53768 24.2856 7.08818 24.2856 8.16183C24.2856 10.6401 23.0736 15.4286 23.0736 17.8569C23.0736 18.7269 23.324 19.5076 23.7968 20.0564C24.2823 20.6201 24.9615 20.9202 25.761 20.927H25.7785C26.5345 20.927 27.322 20.5596 28.1202 19.8353L28.1951 19.7675L28.2552 19.8487C28.7808 20.555 29.6287 20.9347 30.5444 20.8641C31.9487 20.7548 33.1271 19.5043 33.5655 18.3252L33.6513 18.0945L33.7369 18.3252C34.0627 19.2001 34.7674 20.2546 36.2732 20.1324ZM49.2139 3.72099L49.2379 3.72044C49.3984 3.72044 49.5394 3.8008 49.6564 3.95988C50.214 4.71374 50.2225 7.46537 49.2633 10.5961C48.7153 12.3854 47.9781 14.0756 47.1324 15.4836L46.9974 15.7077L46.963 15.4483C46.8635 14.6912 46.8143 13.9029 46.7798 13.2321C46.5352 8.49994 47.9666 3.78577 49.2139 3.72099ZM33.6317 14.7808C33.1402 16.7584 32.1977 19.1457 30.4984 19.2824L30.3601 19.2881C29.6552 19.2881 29.26 18.8267 29.1853 17.916C29.0919 16.7767 29.583 15.4426 30.4364 14.5163C30.9795 13.9264 31.5923 13.6017 32.1617 13.6017H32.1732C32.8917 13.6072 33.3955 14.1842 33.627 14.7224L33.6393 14.7502L33.6317 14.7808ZM41.5132 7.5307C40.8859 7.5307 40.3794 8.02489 40.3745 8.6325C40.3696 9.2445 40.8731 9.74634 41.4963 9.75098L41.5053 9.842V9.75098C42.1236 9.75098 42.6298 9.25707 42.6347 8.64972C42.6396 8.03746 42.1364 7.53562 41.5132 7.5307ZM80.9534 7.5307C80.3261 7.5307 79.8199 8.02489 79.8147 8.6325C79.8097 9.2445 80.313 9.74634 80.9364 9.75098L80.9452 9.842V9.75098C81.564 9.75098 82.0702 9.25707 82.0751 8.64972C82.0795 8.03746 81.5766 7.53562 80.9534 7.5307Z" fill="white"/>
</svg>
